# xmcd CD database file
#
# Track frame offsets:
#	150
#	17756
#	32614
#	42647
#	60169
#	72076
#	92080
#	106064
#	124102
#	139815
#	161028
#	171789
#	193291
#	204891
#
# Disc length: 2958 seconds
#
# Revision: 2
# Processed by: cddbd v1.5.1PL0 Copyright (c) Steve Scherf et al.
# Submitted via: CDex 1.51
#
DISCID=bb0b8c0e
DTITLE=John Hughey - Neck To Neck
DYEAR=2000
DGENRE=Country
TTITLE0=Blues For Dixie
TTITLE1=Making Plans
TTITLE2=My Window Faces the South
TTITLE3=One Has My Name
TTITLE4=Heart to Heart Talk
TTITLE5=The Waltz You Saved For Me
TTITLE6=End Of The Line
TTITLE7=Making Believe
TTITLE8=The Heart Of A Clown
TTITLE9=Afraid
TTITLE10=Columbus Stockade Blues
TTITLE11=We Could
TTITLE12=Time Changes Everything
TTITLE13=Solitude
EXTD=YEAR: 2000
EXTT0=
EXTT1=
EXTT2=
EXTT3=
EXTT4=
EXTT5=
EXTT6=
EXTT7=
EXTT8=
EXTT9=
EXTT10=
EXTT11=
EXTT12=
EXTT13=
PLAYORDER=
